<svg xmlns="http://www.w3.org/2000/svg" xmlns:xlink="http://www.w3.org/1999/xlink" width="356" height="163" viewBox="0 0 356 163">
  <defs>
    <polygon id="startearly_logo_tagline_purple_rgb-a" points=".06 .992 95.449 .992 95.449 134.692 .06 134.692"/>
    <polygon id="startearly_logo_tagline_purple_rgb-c" points="-.004 .235 17.13 .235 17.13 18.94 -.004 18.94"/>
    <polygon id="startearly_logo_tagline_purple_rgb-e" points=".629 .254 26.085 .254 26.085 14.94 .629 14.94"/>
  </defs>
  <g fill="none" fill-rule="evenodd">
    <mask id="startearly_logo_tagline_purple_rgb-b" fill="#fff">
      <use xlink:href="#startearly_logo_tagline_purple_rgb-a"/>
    </mask>
    <path fill="#342964" d="M51.6888165,72.811 C51.671,78.76 52.976,82.701 56.052,85.986 C58.413,88.508 61.293,90.355 64.61,91.477 C66.426,92.091 68.194,92.36 69.857,92.289 C74.095,92.098 77.594,90.755 80.555,88.182 C81.548,87.32 82.403,86.505 83.169,85.694 C85.804,82.9 87.287,79.526 87.576,75.664 C87.879,71.625 86.8,67.751 84.278,63.819 C81.994,60.257 78.733,57.939 74.584,56.928 C72.361,56.386 70.002,56.229 67.569,56.458 C64.075,56.791 61.26,57.848 58.964,59.688 C54.436,63.32 51.785,68.103 51.6888165,72.811 Z M26.01,56.17 C24.376,56.17 22.681,56.371 20.928,56.771 C16.732,57.732 13.443,60.246 10.871,64.455 C8.881,67.713 7.842,71.607 7.695,76.359 C7.499,82.655 8.518,88.838 10.724,94.74 C16.456,110.072 27.185,120.672 42.613,126.245 C45.436,127.267 48.373,127.383 51.592,126.601 C53.943,126.031 56.343,125.07 59.375,123.487 C71.381,117.216 79.824,107.695 84.519,95.149 C78.947,99.176 73.036,100.689 66.535,99.772 C60.009,98.85 54.459,95.864 50.042,90.896 C46.326,86.717 44.324,81.566 43.922,75.146 L43.875,74.381 C43.797,73.054 43.722,71.799 43.529,70.574 C42.93,66.788 41.299,63.647 38.68,61.239 C35.012,57.866 30.766,56.17 26.01,56.17 Z M47.705,134.692 C44.608,134.692 41.492,134.083 38.383,132.868 C26.319,128.151 16.719,120.439 9.851,109.947 C8.508,107.896 7.314,106.034 6.293,104 C4.736,100.897 3.031,97.174 2.183,93.093 C2.02,92.308 1.847,91.524 1.674,90.741 C1.273,88.932 0.859,87.062 0.577,85.171 C-0.506,77.916 -0.068,71.519 1.915,65.615 C3.993,59.43 7.847,54.715 13.369,51.601 C15.589,50.349 18.158,49.478 21.224,48.941 L21.36,48.922 C29.863,48.059 37.168,50.032 43.079,54.78 L43.194,54.881 C45.126,56.71 46.674,58.587 47.926,60.638 C50.347,56.797 53.511,53.819 57.348,51.772 C61.886,49.352 66.653,48.319 71.513,48.698 C83.145,49.607 92.426,57.942 94.608,69.439 C95.37,73.459 95.611,77.167 95.344,80.777 C95.083,84.32 94.356,87.764 93.752,90.371 C92.259,96.81 90.052,102.452 87.006,107.617 C79.947,119.583 69.61,128.161 56.283,133.114 C53.451,134.165 50.586,134.692 47.705,134.692 L47.705,134.692 Z" mask="url(#startearly_logo_tagline_purple_rgb-b)"/>
    <path fill="#342964" d="M35.651,8.198 C31.583,8.198 27.612,9.429 24.184,11.795 C19.728,14.871 16.738,19.489 15.764,24.799 C14.791,30.109 15.949,35.487 19.025,39.944 C22.1,44.4 26.719,47.39 32.029,48.364 C43.011,50.378 53.582,43.08 55.595,32.099 C57.607,21.118 50.31,10.547 39.329,8.534 C38.103,8.309 36.872,8.198 35.651,8.198 Z M35.721,55.907 C34.064,55.907 32.394,55.756 30.73,55.451 C15.841,52.723 5.948,38.389 8.677,23.499 C11.406,8.61 25.735,-1.288 40.629,1.446 C47.83,2.766 54.093,6.82 58.263,12.862 C62.433,18.903 64.003,26.197 62.682,33.399 C61.363,40.601 57.308,46.863 51.267,51.033 C46.621,54.239 41.236,55.907 35.721,55.907 L35.721,55.907 Z" mask="url(#startearly_logo_tagline_purple_rgb-b)"/>
    <path fill="#342964" d="M104.314,67.623 L107.806,59.877 C111.552,62.608 117.139,64.512 122.472,64.512 C128.568,64.512 131.044,62.481 131.044,59.75 C131.044,51.433 105.203,57.147 105.203,40.639 C105.203,33.083 111.298,26.798 123.933,26.798 C129.52,26.798 135.234,28.131 139.361,30.735 L136.187,38.544 C132.06,36.195 127.805,35.052 123.87,35.052 C117.774,35.052 115.425,37.337 115.425,40.131 C115.425,48.322 141.266,42.671 141.266,58.989 C141.266,66.417 135.107,72.766 122.409,72.766 C115.361,72.766 108.251,70.671 104.314,67.623"/>
    <polyline fill="#342964" points="164.053 35.941 149.832 35.941 149.832 27.56 188.561 27.56 188.561 35.941 174.34 35.941 174.34 72.004 164.053 72.004 164.053 35.941"/>
    <path fill="#342964" d="M223.433 54.671L216.386 37.656 209.338 54.671 223.433 54.671zM226.672 62.481L206.037 62.481 202.1 72.004 191.56 72.004 211.37 27.56 221.528 27.56 241.401 72.004 230.608 72.004 226.672 62.481 226.672 62.481zM270.259 35.941L261.878 35.941 261.878 51.433 270.259 51.433C276.545 51.433 279.719 48.512 279.719 43.687 279.719 38.798 276.545 35.941 270.259 35.941zM279.91 72.004L271.338 59.623 261.878 59.623 261.878 72.004 251.593 72.004 251.593 27.56 270.83 27.56C282.703 27.56 290.132 33.719 290.132 43.687 290.132 50.354 286.766 55.243 280.989 57.718L290.957 72.004 279.91 72.004 279.91 72.004z"/>
    <polyline fill="#342964" points="315.439 35.941 301.218 35.941 301.218 27.56 339.947 27.56 339.947 35.941 325.725 35.941 325.725 72.004 315.439 72.004 315.439 35.941"/>
    <polyline fill="#342964" points="142.219 120.239 142.219 128.493 107.806 128.493 107.806 84.048 141.393 84.048 141.393 92.302 118.028 92.302 118.028 101.953 138.663 101.953 138.663 109.953 118.028 109.953 118.028 120.239 142.219 120.239"/>
    <path fill="#342964" d="M183.241 111.16L176.194 94.144 169.146 111.16 183.241 111.16zM186.479 118.969L165.844 118.969 161.908 128.493 151.369 128.493 171.178 84.048 181.337 84.048 201.21 128.493 190.416 128.493 186.479 118.969 186.479 118.969zM230.067 92.429L221.686 92.429 221.686 107.921 230.067 107.921C236.352 107.921 239.527 105 239.527 100.175 239.527 95.287 236.352 92.429 230.067 92.429zM239.718 128.493L231.146 116.112 221.686 116.112 221.686 128.493 211.4 128.493 211.4 84.048 230.638 84.048C242.511 84.048 249.94 90.207 249.94 100.175 249.94 106.842 246.575 111.731 240.797 114.206L250.765 128.493 239.718 128.493 239.718 128.493z"/>
    <polyline fill="#342964" points="264.213 84.048 274.499 84.048 274.499 120.112 296.784 120.112 296.784 128.493 264.213 128.493 264.213 84.048"/>
    <polyline fill="#342964" points="325.408 112.746 325.408 128.493 315.122 128.493 315.122 112.62 297.916 84.048 308.837 84.048 320.71 103.794 332.583 84.048 342.678 84.048 325.408 112.746"/>
    <path fill="#342964" d="M6.108 158.274C4.974 157.658 4.085 156.805 3.442 155.717 2.799 154.629 2.476 153.402 2.476 152.036 2.476 150.669 2.802 149.442 3.452 148.354 4.101 147.266 4.994 146.413 6.129 145.796 7.262 145.18 8.533 144.871 9.939 144.871 11.08 144.871 12.121 145.071 13.063 145.468 14.006 145.867 14.801 146.444 15.452 147.2L13.78 148.772C12.771 147.684 11.531 147.14 10.058 147.14 9.103 147.14 8.248 147.349 7.492 147.767 6.735 148.185 6.145 148.765 5.72 149.508 5.296 150.251 5.084 151.093 5.084 152.036 5.084 152.978 5.296 153.82 5.72 154.563 6.145 155.306 6.735 155.886 7.492 156.304 8.248 156.722 9.103 156.931 10.058 156.931 11.531 156.931 12.771 156.38 13.78 155.279L15.452 156.871C14.801 157.627 14.002 158.204 13.053 158.602 12.105 159 11.06 159.2 9.92 159.2 8.512 159.2 7.243 158.891 6.108 158.274M28.082 149.428C28.891 150.211 29.296 151.372 29.296 152.911L29.296 159 26.808 159 26.808 153.229C26.808 152.301 26.59 151.601 26.152 151.13 25.714 150.66 25.091 150.423 24.281 150.423 23.366 150.423 22.642 150.699 22.112 151.249 21.582 151.8 21.316 152.592 21.316 153.627L21.316 159 18.829 159 18.829 144.235 21.316 144.235 21.316 149.608C21.727 149.169 22.234 148.835 22.839 148.603 23.442 148.37 24.115 148.254 24.858 148.254 26.198 148.254 27.273 148.646 28.082 149.428M39.1 156.901C39.585 156.616 39.926 156.207 40.126 155.677L40.126 154.444 37.558 154.444C36.126 154.444 35.409 154.914 35.409 155.856 35.409 156.307 35.589 156.665 35.947 156.931 36.304 157.197 36.803 157.328 37.439 157.328 38.062 157.328 38.616 157.186 39.1 156.901zM41.369 149.378C42.198 150.128 42.613 151.259 42.613 152.772L42.613 159 40.264 159 40.264 157.706C39.96 158.171 39.525 158.526 38.962 158.772 38.397 159.017 37.717 159.14 36.922 159.14 36.126 159.14 35.43 159.003 34.832 158.732 34.235 158.46 33.774 158.081 33.449 157.597 33.124 157.114 32.962 156.566 32.962 155.955 32.962 155 33.316 154.235 34.026 153.658 34.736 153.08 35.853 152.791 37.38 152.791L40.126 152.791 40.126 152.632C40.126 151.89 39.903 151.319 39.459 150.921 39.014 150.523 38.354 150.324 37.479 150.324 36.882 150.324 36.295 150.417 35.717 150.603 35.14 150.788 34.653 151.047 34.255 151.378L33.28 149.568C33.837 149.143 34.507 148.819 35.29 148.593 36.072 148.368 36.902 148.254 37.777 148.254 39.342 148.254 40.54 148.629 41.369 149.378L41.369 149.378zM63.584 149.418C64.366 150.195 64.758 151.359 64.758 152.911L64.758 159 62.27 159 62.27 153.229C62.27 152.301 62.064 151.601 61.653 151.13 61.242 150.66 60.651 150.423 59.882 150.423 59.047 150.423 58.376 150.699 57.872 151.249 57.368 151.8 57.116 152.586 57.116 153.608L57.116 159 54.629 159 54.629 153.229C54.629 152.301 54.423 151.601 54.011 151.13 53.6 150.66 53.009 150.423 52.24 150.423 51.391 150.423 50.718 150.696 50.22 151.24 49.723 151.784 49.474 152.573 49.474 153.608L49.474 159 46.987 159 46.987 148.373 49.355 148.373 49.355 149.727C49.753 149.249 50.251 148.884 50.847 148.632 51.444 148.38 52.107 148.254 52.838 148.254 53.634 148.254 54.34 148.404 54.957 148.703 55.574 149 56.061 149.442 56.42 150.026 56.857 149.468 57.421 149.034 58.111 148.722 58.801 148.411 59.563 148.254 60.399 148.254 61.739 148.254 62.801 148.642 63.584 149.418M77.002 156.095C77.592 155.485 77.887 154.682 77.887 153.687 77.887 152.692 77.592 151.89 77.002 151.279 76.411 150.669 75.659 150.364 74.743 150.364 74.146 150.364 73.609 150.5 73.132 150.772 72.654 151.043 72.275 151.432 71.997 151.936 71.718 152.44 71.579 153.024 71.579 153.687 71.579 154.351 71.718 154.934 71.997 155.438 72.275 155.943 72.654 156.33 73.132 156.602 73.609 156.874 74.146 157.01 74.743 157.01 75.659 157.01 76.411 156.705 77.002 156.095zM77.798 148.931C78.614 149.382 79.254 150.019 79.718 150.841 80.182 151.664 80.415 152.613 80.415 153.687 80.415 154.762 80.182 155.714 79.718 156.542 79.254 157.372 78.614 158.012 77.798 158.463 76.982 158.914 76.056 159.14 75.021 159.14 73.589 159.14 72.455 158.662 71.619 157.706L71.619 162.861 69.132 162.861 69.132 148.373 71.5 148.373 71.5 149.767C71.911 149.263 72.418 148.884 73.022 148.632 73.626 148.38 74.292 148.254 75.021 148.254 76.056 148.254 76.982 148.48 77.798 148.931L77.798 148.931zM84.062 159L86.549 159 86.549 148.373 84.062 148.373 84.062 159zM84.181 146.195C83.876 145.91 83.723 145.555 83.723 145.13 83.723 144.705 83.876 144.351 84.181 144.066 84.486 143.781 84.865 143.637 85.316 143.637 85.766 143.637 86.144 143.774 86.45 144.045 86.755 144.318 86.908 144.66 86.908 145.071 86.908 145.508 86.759 145.876 86.46 146.175 86.162 146.473 85.78 146.622 85.316 146.622 84.865 146.622 84.486 146.48 84.181 146.195L84.181 146.195zM98.137 156.095C98.734 155.485 99.033 154.682 99.033 153.687 99.033 152.692 98.734 151.89 98.137 151.279 97.541 150.669 96.784 150.364 95.869 150.364 94.953 150.364 94.2 150.669 93.61 151.279 93.019 151.89 92.724 152.692 92.724 153.687 92.724 154.682 93.019 155.485 93.61 156.095 94.2 156.705 94.953 157.01 95.869 157.01 96.784 157.01 97.541 156.705 98.137 156.095zM92.964 158.443C92.1 157.979 91.427 157.332 90.943 156.503 90.459 155.674 90.217 154.736 90.217 153.687 90.217 152.639 90.459 151.703 90.943 150.881 91.427 150.059 92.1 149.415 92.964 148.951 93.826 148.487 94.794 148.254 95.869 148.254 96.957 148.254 97.931 148.487 98.794 148.951 99.656 149.415 100.33 150.059 100.814 150.881 101.298 151.703 101.54 152.639 101.54 153.687 101.54 154.736 101.298 155.674 100.814 156.503 100.33 157.332 99.656 157.979 98.794 158.443 97.931 158.908 96.957 159.14 95.869 159.14 94.794 159.14 93.826 158.908 92.964 158.443L92.964 158.443zM114.485 149.428C115.294 150.211 115.699 151.372 115.699 152.911L115.699 159 113.212 159 113.212 153.229C113.212 152.301 112.992 151.601 112.554 151.13 112.117 150.66 111.493 150.423 110.684 150.423 109.768 150.423 109.046 150.699 108.515 151.249 107.984 151.8 107.719 152.592 107.719 153.627L107.719 159 105.231 159 105.231 148.373 107.599 148.373 107.599 149.746C108.011 149.256 108.528 148.884 109.152 148.632 109.775 148.38 110.478 148.254 111.261 148.254 112.601 148.254 113.676 148.646 114.485 149.428M121.026 158.801C120.204 158.576 119.547 158.29 119.056 157.946L120.011 156.055C120.489 156.373 121.062 156.629 121.732 156.822 122.402 157.014 123.062 157.11 123.713 157.11 125.198 157.11 125.941 156.719 125.941 155.936 125.941 155.565 125.753 155.306 125.375 155.16 124.996 155.014 124.389 154.874 123.553 154.742 122.678 154.61 121.965 154.456 121.414 154.285 120.864 154.112 120.386 153.81 119.981 153.378 119.577 152.948 119.375 152.347 119.375 151.578 119.375 150.57 119.796 149.764 120.638 149.16 121.48 148.556 122.618 148.254 124.051 148.254 124.78 148.254 125.511 148.337 126.24 148.503 126.969 148.669 127.566 148.891 128.031 149.169L127.076 151.06C126.174 150.53 125.159 150.264 124.031 150.264 123.302 150.264 122.748 150.373 122.37 150.592 121.991 150.812 121.803 151.1 121.803 151.458 121.803 151.856 122.005 152.138 122.409 152.304 122.814 152.47 123.44 152.625 124.29 152.772 125.138 152.905 125.835 153.057 126.38 153.229 126.924 153.402 127.39 153.694 127.782 154.105 128.174 154.516 128.369 155.1 128.369 155.856 128.369 156.851 127.938 157.647 127.076 158.245 126.214 158.841 125.039 159.14 123.553 159.14 122.691 159.14 121.848 159.027 121.026 158.801M141.742 147.817L141.742 148.453 144.667 148.453 144.667 150.444 141.821 150.444 141.821 159 139.334 159 139.334 150.444 137.583 150.444 137.583 148.453 139.334 148.453 139.334 147.777C139.334 146.636 139.666 145.737 140.329 145.08 140.992 144.423 141.928 144.095 143.135 144.095 144.09 144.095 144.84 144.287 145.384 144.672L144.687 146.543C144.262 146.251 143.804 146.105 143.314 146.105 142.265 146.105 141.742 146.676 141.742 147.817M154.746 156.095C155.344 155.485 155.641 154.682 155.641 153.687 155.641 152.692 155.344 151.89 154.746 151.279 154.149 150.669 153.393 150.364 152.477 150.364 151.562 150.364 150.809 150.669 150.219 151.279 149.629 151.89 149.334 152.692 149.334 153.687 149.334 154.682 149.629 155.485 150.219 156.095 150.809 156.705 151.562 157.01 152.477 157.01 153.393 157.01 154.149 156.705 154.746 156.095zM149.572 158.443C148.71 157.979 148.037 157.332 147.553 156.503 147.068 155.674 146.826 154.736 146.826 153.687 146.826 152.639 147.068 151.703 147.553 150.881 148.037 150.059 148.71 149.415 149.572 148.951 150.434 148.487 151.403 148.254 152.477 148.254 153.565 148.254 154.541 148.487 155.403 148.951 156.265 149.415 156.938 150.059 157.423 150.881 157.907 151.703 158.149 152.639 158.149 153.687 158.149 154.736 157.907 155.674 157.423 156.503 156.938 157.332 156.265 157.979 155.403 158.443 154.541 158.908 153.565 159.14 152.477 159.14 151.403 159.14 150.434 158.908 149.572 158.443L149.572 158.443zM167.989 148.254L167.989 150.622C167.777 150.582 167.585 150.563 167.412 150.563 166.444 150.563 165.687 150.845 165.143 151.409 164.599 151.973 164.328 152.786 164.328 153.846L164.328 159 161.841 159 161.841 148.373 164.209 148.373 164.209 149.926C164.925 148.812 166.185 148.254 167.989 148.254"/>
    <polyline fill="#342964" points="189.362 156.831 189.362 159 178.915 159 178.915 145.071 189.084 145.071 189.084 147.24 181.502 147.24 181.502 150.862 188.227 150.862 188.227 152.991 181.502 152.991 181.502 156.831 189.362 156.831"/>
    <path fill="#342964" d="M198.661 156.901C199.145 156.616 199.487 156.207 199.686 155.677L199.686 154.444 197.119 154.444C195.686 154.444 194.969 154.914 194.969 155.856 194.969 156.307 195.149 156.665 195.508 156.931 195.865 157.197 196.363 157.328 197 157.328 197.623 157.328 198.177 157.186 198.661 156.901zM200.929 149.378C201.759 150.128 202.174 151.259 202.174 152.772L202.174 159 199.825 159 199.825 157.706C199.52 158.171 199.086 158.526 198.522 158.772 197.958 159.017 197.278 159.14 196.482 159.14 195.686 159.14 194.99 159.003 194.392 158.732 193.796 158.46 193.335 158.081 193.01 157.597 192.684 157.114 192.522 156.566 192.522 155.955 192.522 155 192.877 154.235 193.587 153.658 194.297 153.08 195.414 152.791 196.94 152.791L199.686 152.791 199.686 152.632C199.686 151.89 199.464 151.319 199.019 150.921 198.575 150.523 197.915 150.324 197.04 150.324 196.442 150.324 195.855 150.417 195.278 150.603 194.701 150.788 194.214 151.047 193.815 151.378L192.841 149.568C193.397 149.143 194.067 148.819 194.85 148.593 195.633 148.368 196.463 148.254 197.338 148.254 198.903 148.254 200.1 148.629 200.929 149.378L200.929 149.378zM212.696 148.254L212.696 150.622C212.484 150.582 212.292 150.563 212.119 150.563 211.151 150.563 210.394 150.845 209.85 151.409 209.306 151.973 209.035 152.786 209.035 153.846L209.035 159 206.548 159 206.548 148.373 208.916 148.373 208.916 149.926C209.632 148.812 210.892 148.254 212.696 148.254"/>
    <g transform="translate(216 144)">
      <mask id="startearly_logo_tagline_purple_rgb-d" fill="#fff">
        <use xlink:href="#startearly_logo_tagline_purple_rgb-c"/>
      </mask>
      <polygon fill="#342964" points="-.004 15 2.483 15 2.483 .235 -.004 .235" mask="url(#startearly_logo_tagline_purple_rgb-d)"/>
      <path fill="#342964" d="M17.13,4.373 L12.155,15.856 C11.69,17.01 11.127,17.823 10.464,18.293 C9.8,18.765 8.997,19 8.055,19 C7.524,19 7.001,18.913 6.483,18.742 C5.966,18.569 5.542,18.33 5.21,18.025 L6.205,16.195 C6.443,16.419 6.725,16.599 7.051,16.732 C7.375,16.864 7.704,16.931 8.035,16.931 C8.473,16.931 8.835,16.818 9.12,16.592 C9.405,16.367 9.667,15.989 9.906,15.458 L10.085,15.04 L5.448,4.373 L8.035,4.373 L11.379,12.235 L14.742,4.373 L17.13,4.373" mask="url(#startearly_logo_tagline_purple_rgb-d)"/>
    </g>
    <polyline fill="#342964" points="243.397 145.071 245.984 145.071 245.984 156.811 253.268 156.811 253.268 159 243.397 159 243.397 145.071"/>
    <path fill="#342964" d="M259.137 150.951C258.588 151.422 258.253 152.049 258.133 152.831L264.163 152.831C264.056 152.062 263.731 151.439 263.187 150.96 262.643 150.483 261.967 150.245 261.158 150.245 260.362 150.245 259.688 150.48 259.137 150.951zM266.491 154.483L258.153 154.483C258.299 155.266 258.68 155.886 259.298 156.344 259.914 156.801 260.68 157.031 261.595 157.031 262.762 157.031 263.725 156.646 264.481 155.876L265.814 157.409C265.337 157.979 264.733 158.411 264.004 158.702 263.274 158.994 262.451 159.14 261.536 159.14 260.368 159.14 259.34 158.908 258.451 158.443 257.562 157.979 256.876 157.332 256.391 156.503 255.907 155.674 255.666 154.736 255.666 153.687 255.666 152.653 255.901 151.72 256.372 150.891 256.843 150.062 257.496 149.415 258.332 148.951 259.168 148.487 260.109 148.254 261.158 148.254 262.192 148.254 263.118 148.483 263.933 148.941 264.75 149.399 265.387 150.042 265.845 150.871 266.302 151.701 266.531 152.66 266.531 153.746 266.531 153.919 266.517 154.164 266.491 154.483L266.491 154.483zM275.563 156.901C276.048 156.616 276.389 156.207 276.588 155.677L276.588 154.444 274.021 154.444C272.588 154.444 271.872 154.914 271.872 155.856 271.872 156.307 272.051 156.665 272.409 156.931 272.767 157.197 273.264 157.328 273.901 157.328 274.525 157.328 275.079 157.186 275.563 156.901zM277.832 149.378C278.661 150.128 279.076 151.259 279.076 152.772L279.076 159 276.727 159 276.727 157.706C276.422 158.171 275.987 158.526 275.424 158.772 274.86 159.017 274.18 159.14 273.385 159.14 272.588 159.14 271.891 159.003 271.295 158.732 270.698 158.46 270.236 158.081 269.912 157.597 269.587 157.114 269.424 156.566 269.424 155.955 269.424 155 269.779 154.235 270.489 153.658 271.198 153.08 272.316 152.791 273.842 152.791L276.588 152.791 276.588 152.632C276.588 151.89 276.366 151.319 275.922 150.921 275.476 150.523 274.817 150.324 273.941 150.324 273.345 150.324 272.758 150.417 272.18 150.603 271.603 150.788 271.115 151.047 270.718 151.378L269.742 149.568C270.3 149.143 270.97 148.819 271.753 148.593 272.535 148.368 273.364 148.254 274.24 148.254 275.805 148.254 277.003 148.629 277.832 149.378L277.832 149.378zM289.598 148.254L289.598 150.622C289.387 150.582 289.194 150.563 289.021 150.563 288.053 150.563 287.297 150.845 286.753 151.409 286.209 151.973 285.937 152.786 285.937 153.846L285.937 159 283.45 159 283.45 148.373 285.818 148.373 285.818 149.926C286.534 148.812 287.795 148.254 289.598 148.254M302.151 149.428C302.961 150.211 303.365 151.372 303.365 152.911L303.365 159 300.878 159 300.878 153.229C300.878 152.301 300.659 151.601 300.221 151.13 299.783 150.66 299.16 150.423 298.35 150.423 297.435 150.423 296.712 150.699 296.181 151.249 295.651 151.8 295.386 152.592 295.386 153.627L295.386 159 292.898 159 292.898 148.373 295.266 148.373 295.266 149.746C295.678 149.256 296.194 148.884 296.818 148.632 297.441 148.38 298.144 148.254 298.928 148.254 300.267 148.254 301.343 148.646 302.151 149.428M307.679 159L310.167 159 310.167 148.373 307.679 148.373 307.679 159zM307.799 146.195C307.494 145.91 307.342 145.555 307.342 145.13 307.342 144.705 307.494 144.351 307.799 144.066 308.104 143.781 308.482 143.637 308.933 143.637 309.385 143.637 309.762 143.774 310.068 144.045 310.373 144.318 310.525 144.66 310.525 145.071 310.525 145.508 310.376 145.876 310.078 146.175 309.779 146.473 309.397 146.622 308.933 146.622 308.482 146.622 308.104 146.48 307.799 146.195L307.799 146.195z"/>
    <g transform="translate(314 148)">
      <mask id="startearly_logo_tagline_purple_rgb-f" fill="#fff">
        <use xlink:href="#startearly_logo_tagline_purple_rgb-e"/>
      </mask>
      <path fill="#342964" d="M9.882 1.428C10.691 2.211 11.095 3.372 11.095 4.911L11.095 11 8.608 11 8.608 5.229C8.608 4.301 8.389 3.601 7.952 3.13 7.513 2.66 6.89 2.423 6.081 2.423 5.166 2.423 4.442 2.699 3.912 3.249 3.382 3.8 3.116 4.592 3.116 5.627L3.116 11 .629 11 .629.373 2.997.373 2.997 1.746C3.408 1.256 3.925.884 4.549.632 5.172.38 5.875.254 6.658.254 7.998.254 9.073.646 9.882 1.428M22.731 7.568C23.335 7.004 23.637 6.271 23.637 5.369 23.637 4.48 23.335 3.757 22.731 3.2 22.128 2.642 21.355 2.364 20.413 2.364 19.458 2.364 18.678 2.642 18.075 3.2 17.471 3.757 17.17 4.48 17.17 5.369 17.17 6.271 17.471 7.004 18.075 7.568 18.678 8.131 19.458 8.413 20.413 8.413 21.355 8.413 22.128 8.131 22.731 7.568zM26.085.373L26.085 9.388C26.085 13.129 24.175 15 20.353 15 19.332 15 18.363 14.87 17.448 14.613 16.533 14.354 15.776 13.979 15.179 13.488L16.294 11.618C16.758 12.002 17.345 12.31 18.054 12.542 18.764 12.775 19.484 12.891 20.214 12.891 21.382 12.891 22.237 12.625 22.781 12.095 23.325 11.564 23.597 10.755 23.597 9.667L23.597 9.11C23.173 9.575 22.655 9.926 22.045 10.164 21.434 10.404 20.764 10.523 20.035 10.523 19.026 10.523 18.115 10.307 17.299 9.876 16.483 9.445 15.84 8.838 15.369 8.055 14.897 7.273 14.662 6.377 14.662 5.369 14.662 4.361 14.897 3.468 15.369 2.692 15.84 1.916 16.483 1.316 17.299.891 18.115.467 19.026.254 20.035.254 20.804.254 21.504.38 22.135.632 22.764.884 23.292 1.269 23.717 1.786L23.717.373 26.085.373 26.085.373z" mask="url(#startearly_logo_tagline_purple_rgb-f)"/>
    </g>
    <path fill="#322A64" d="M349.448,31.31 C349.925,31.31 350.293,31.205 350.553,30.996 C350.814,30.786 350.944,30.494 350.944,30.12 C350.944,29.746 350.814,29.457 350.553,29.253 C350.293,29.049 349.925,28.947 349.448,28.947 L348.19,28.947 L348.19,31.31 L349.448,31.31 Z M352.007,31.395 C351.774,31.747 351.443,32.013 351.012,32.194 L352.509,34.489 L351.047,34.489 L349.72,32.449 L348.208,32.449 L348.208,34.489 L346.746,34.489 L346.746,27.791 L349.534,27.791 C350.406,27.791 351.095,28.001 351.599,28.42 C352.103,28.84 352.355,29.406 352.355,30.12 C352.355,30.619 352.239,31.044 352.007,31.395 Z M351.803,35.526 C352.568,35.073 353.172,34.458 353.613,33.682 C354.055,32.906 354.276,32.047 354.276,31.106 C354.276,30.165 354.061,29.313 353.631,28.548 C353.2,27.783 352.604,27.179 351.845,26.737 C351.086,26.295 350.23,26.074 349.278,26.074 C348.327,26.074 347.465,26.298 346.694,26.746 C345.924,27.194 345.32,27.803 344.884,28.573 C344.448,29.344 344.229,30.2 344.229,31.14 C344.229,32.081 344.448,32.936 344.884,33.707 C345.32,34.478 345.921,35.087 346.686,35.535 C347.451,35.983 348.303,36.206 349.245,36.206 C350.185,36.206 351.038,35.98 351.803,35.526 Z M352.33,25.921 C353.242,26.443 353.959,27.16 354.48,28.072 C355.002,28.984 355.262,29.996 355.262,31.106 C355.262,32.217 354.996,33.234 354.464,34.158 C353.93,35.081 353.206,35.809 352.288,36.342 C351.37,36.875 350.355,37.141 349.245,37.141 C348.134,37.141 347.122,36.875 346.21,36.342 C345.298,35.809 344.578,35.084 344.051,34.166 C343.524,33.248 343.261,32.24 343.261,31.14 C343.261,30.041 343.524,29.032 344.051,28.114 C344.578,27.196 345.301,26.471 346.219,25.938 C347.137,25.406 348.156,25.139 349.278,25.139 C350.4,25.139 351.418,25.4 352.33,25.921 L352.33,25.921 Z"/>
  </g>
</svg>
